solid OpenSCAD_Model
  facet normal 1 -0 0
    outer loop
      vertex 21.75 -6.76389 1
      vertex 21.75 50 0
      vertex 21.75 50 1
    endloop
  endfacet
  facet normal 1 0 0
    outer loop
      vertex 21.75 50 0
      vertex 21.75 -6.76389 1
      vertex 21.75 -6.76389 0
    endloop
  endfacet
  facet normal -0 0 1
    outer loop
      vertex -38.0056 -8.51389 1
      vertex 37.7 -28.3139 1
      vertex 37.7 -8.51389 1
    endloop
  endfacet
  facet normal 0 0 1
    outer loop
      vertex 37.7 -28.3139 1
      vertex -38.0056 -8.51389 1
      vertex -38.0056 -28.3139 1
    endloop
  endfacet
  facet normal -0 0 1
    outer loop
      vertex -17.191 -0.0489426 1
      vertex 16.691 -0.412214 1
      vertex -17.191 44.0489 1
    endloop
  endfacet
  facet normal 0 0 1
    outer loop
      vertex 16.691 -0.412214 1
      vertex -17.191 -0.0489426 1
      vertex -16.5 -1 1
    endloop
  endfacet
  facet normal 0 0 1
    outer loop
      vertex -18.309 44.4122 1
      vertex -17.191 -0.0489426 1
      vertex -17.191 44.0489 1
    endloop
  endfacet
  facet normal 0 0 1
    outer loop
      vertex -17.191 -0.0489426 1
      vertex -18.309 44.4122 1
      vertex -18.309 -0.412214 1
    endloop
  endfacet
  facet normal -0 0 1
    outer loop
      vertex 17.809 44.0489 1
      vertex 18.5 -1 1
      vertex 18.5 45 1
    endloop
  endfacet
  facet normal 0 0 1
    outer loop
      vertex 17.809 44.0489 1
      vertex 17.809 -0.0489426 1
      vertex 18.5 -1 1
    endloop
  endfacet
  facet normal 0 0 1
    outer loop
      vertex 16.691 44.4122 1
      vertex 17.809 -0.0489426 1
      vertex 17.809 44.0489 1
    endloop
  endfacet
  facet normal 0 0 1
    outer loop
      vertex 17.809 -0.0489426 1
      vertex 16.691 44.4122 1
      vertex 16.691 -0.412214 1
    endloop
  endfacet
  facet normal 0 0 1
    outer loop
      vertex 18.5 -1 1
      vertex 21.75 50 1
      vertex 18.5 45 1
    endloop
  endfacet
  facet normal 0 0 1
    outer loop
      vertex 21.75 50 1
      vertex 17.809 45.9511 1
      vertex 18.5 45 1
    endloop
  endfacet
  facet normal 0 0 1
    outer loop
      vertex 21.75 50 1
      vertex 16.691 45.5878 1
      vertex 17.809 45.9511 1
    endloop
  endfacet
  facet normal -0 0 1
    outer loop
      vertex -16.5 45 1
      vertex 16.691 44.4122 1
      vertex 16.691 45.5878 1
    endloop
  endfacet
  facet normal 0 0 1
    outer loop
      vertex -17.191 44.0489 1
      vertex 16.691 44.4122 1
      vertex -16.5 45 1
    endloop
  endfacet
  facet normal 0 0 1
    outer loop
      vertex 16.691 44.4122 1
      vertex -17.191 44.0489 1
      vertex 16.691 -0.412214 1
    endloop
  endfacet
  facet normal -0 0 1
    outer loop
      vertex -17.191 45.9511 1
      vertex 16.691 45.5878 1
      vertex 21.75 50 1
    endloop
  endfacet
  facet normal 0 0 1
    outer loop
      vertex 16.691 45.5878 1
      vertex -17.191 45.9511 1
      vertex -16.5 45 1
    endloop
  endfacet
  facet normal 0 0 1
    outer loop
      vertex -21.75 50 1
      vertex -18.309 44.4122 1
      vertex -18.309 45.5878 1
    endloop
  endfacet
  facet normal 0 0 1
    outer loop
      vertex -18.309 44.4122 1
      vertex -21.75 50 1
      vertex -18.309 -0.412214 1
    endloop
  endfacet
  facet normal 0 0 1
    outer loop
      vertex -21.75 -6.76389 1
      vertex -18.309 -0.412214 1
      vertex -21.75 50 1
    endloop
  endfacet
  facet normal 0 0 1
    outer loop
      vertex -17.191 45.9511 1
      vertex -21.75 50 1
      vertex -18.309 45.5878 1
    endloop
  endfacet
  facet normal -0 0 1
    outer loop
      vertex -21.75 50 1
      vertex -17.191 45.9511 1
      vertex 21.75 50 1
    endloop
  endfacet
  facet normal 0 0 1
    outer loop
      vertex 21.75 50 1
      vertex 18.5 -1 1
      vertex 21.75 -6.76389 1
    endloop
  endfacet
  facet normal -0 0 1
    outer loop
      vertex 17.809 -1.95106 1
      vertex 21.75 -6.76389 1
      vertex 18.5 -1 1
    endloop
  endfacet
  facet normal 0 0 1
    outer loop
      vertex 16.691 -1.58778 1
      vertex 21.75 -6.76389 1
      vertex 17.809 -1.95106 1
    endloop
  endfacet
  facet normal 0 0 1
    outer loop
      vertex 16.691 -0.412214 1
      vertex -16.5 -1 1
      vertex 16.691 -1.58778 1
    endloop
  endfacet
  facet normal 0 0 1
    outer loop
      vertex -17.191 -1.95106 1
      vertex 16.691 -1.58778 1
      vertex -16.5 -1 1
    endloop
  endfacet
  facet normal 0 0 1
    outer loop
      vertex 16.691 -1.58778 1
      vertex -17.191 -1.95106 1
      vertex 21.75 -6.76389 1
    endloop
  endfacet
  facet normal 0 0 1
    outer loop
      vertex -17.191 -1.95106 1
      vertex -21.75 -6.76389 1
      vertex 21.75 -6.76389 1
    endloop
  endfacet
  facet normal 0 0 1
    outer loop
      vertex -18.309 -1.58778 1
      vertex -21.75 -6.76389 1
      vertex -17.191 -1.95106 1
    endloop
  endfacet
  facet normal 0 0 1
    outer loop
      vertex -18.309 -0.412214 1
      vertex -21.75 -6.76389 1
      vertex -18.309 -1.58778 1
    endloop
  endfacet
  facet normal 0 0 -1
    outer loop
      vertex -17.191 44.0489 0
      vertex 16.691 44.4122 0
      vertex -17.191 -0.0489426 0
    endloop
  endfacet
  facet normal -0 0 -1
    outer loop
      vertex 16.691 44.4122 0
      vertex -17.191 44.0489 0
      vertex -16.5 45 0
    endloop
  endfacet
  facet normal 0 0 -1
    outer loop
      vertex -18.309 -0.412214 0
      vertex -17.191 44.0489 0
      vertex -17.191 -0.0489426 0
    endloop
  endfacet
  facet normal -0 0 -1
    outer loop
      vertex -17.191 44.0489 0
      vertex -18.309 -0.412214 0
      vertex -18.309 44.4122 0
    endloop
  endfacet
  facet normal 0 0 -1
    outer loop
      vertex 17.809 -0.0489426 0
      vertex 18.5 45 0
      vertex 18.5 -1 0
    endloop
  endfacet
  facet normal 0 0 -1
    outer loop
      vertex 17.809 -0.0489426 0
      vertex 17.809 44.0489 0
      vertex 18.5 45 0
    endloop
  endfacet
  facet normal 0 0 -1
    outer loop
      vertex 16.691 -0.412214 0
      vertex 17.809 44.0489 0
      vertex 17.809 -0.0489426 0
    endloop
  endfacet
  facet normal -0 0 -1
    outer loop
      vertex 17.809 44.0489 0
      vertex 16.691 -0.412214 0
      vertex 16.691 44.4122 0
    endloop
  endfacet
  facet normal 0 0 -1
    outer loop
      vertex 39.7 -30.0639 0
      vertex 21.75 -6.76389 0
      vertex 39.7 -6.76389 0
    endloop
  endfacet
  facet normal 0 0 -1
    outer loop
      vertex 21.75 -6.76389 0
      vertex 18.5 -1 0
      vertex 21.75 50 0
    endloop
  endfacet
  facet normal 0 0 -1
    outer loop
      vertex 21.75 -6.76389 0
      vertex 17.809 -1.95106 0
      vertex 18.5 -1 0
    endloop
  endfacet
  facet normal 0 0 -1
    outer loop
      vertex -21.75 -6.76389 0
      vertex 21.75 -6.76389 0
      vertex 39.7 -30.0639 0
    endloop
  endfacet
  facet normal 0 0 -1
    outer loop
      vertex 21.75 -6.76389 0
      vertex 16.691 -1.58778 0
      vertex 17.809 -1.95106 0
    endloop
  endfacet
  facet normal 0 0 -1
    outer loop
      vertex -16.5 -1 0
      vertex 16.691 -0.412214 0
      vertex 16.691 -1.58778 0
    endloop
  endfacet
  facet normal 0 0 -1
    outer loop
      vertex -17.191 -0.0489426 0
      vertex 16.691 -0.412214 0
      vertex -16.5 -1 0
    endloop
  endfacet
  facet normal 0 0 -1
    outer loop
      vertex 16.691 -0.412214 0
      vertex -17.191 -0.0489426 0
      vertex 16.691 44.4122 0
    endloop
  endfacet
  facet normal 0 0 -1
    outer loop
      vertex 21.75 -6.76389 0
      vertex -21.75 -6.76389 0
      vertex 16.691 -1.58778 0
    endloop
  endfacet
  facet normal -0 0 -1
    outer loop
      vertex 16.691 -1.58778 0
      vertex -17.191 -1.95106 0
      vertex -16.5 -1 0
    endloop
  endfacet
  facet normal 0 0 -1
    outer loop
      vertex 16.691 -1.58778 0
      vertex -21.75 -6.76389 0
      vertex -17.191 -1.95106 0
    endloop
  endfacet
  facet normal 0 0 -1
    outer loop
      vertex -21.75 -6.76389 0
      vertex -18.309 -0.412214 0
      vertex -18.309 -1.58778 0
    endloop
  endfacet
  facet normal 0 0 -1
    outer loop
      vertex -21.75 50 0
      vertex -18.309 -0.412214 0
      vertex -21.75 -6.76389 0
    endloop
  endfacet
  facet normal 0 0 -1
    outer loop
      vertex -18.309 -0.412214 0
      vertex -21.75 50 0
      vertex -18.309 44.4122 0
    endloop
  endfacet
  facet normal -0 0 -1
    outer loop
      vertex -17.191 -1.95106 0
      vertex -21.75 -6.76389 0
      vertex -18.309 -1.58778 0
    endloop
  endfacet
  facet normal 0 0 -1
    outer loop
      vertex -40.0056 -30.0639 0
      vertex -21.75 -6.76389 0
      vertex 39.7 -30.0639 0
    endloop
  endfacet
  facet normal -0 0 -1
    outer loop
      vertex -21.75 -6.76389 0
      vertex -40.0056 -30.0639 0
      vertex -40.0056 -6.76389 0
    endloop
  endfacet
  facet normal 0 0 -1
    outer loop
      vertex 18.5 45 0
      vertex 21.75 50 0
      vertex 18.5 -1 0
    endloop
  endfacet
  facet normal 0 0 -1
    outer loop
      vertex 17.809 45.9511 0
      vertex 21.75 50 0
      vertex 18.5 45 0
    endloop
  endfacet
  facet normal 0 0 -1
    outer loop
      vertex 16.691 45.5878 0
      vertex 21.75 50 0
      vertex 17.809 45.9511 0
    endloop
  endfacet
  facet normal 0 0 -1
    outer loop
      vertex 16.691 44.4122 0
      vertex -16.5 45 0
      vertex 16.691 45.5878 0
    endloop
  endfacet
  facet normal 0 0 -1
    outer loop
      vertex -17.191 45.9511 0
      vertex 16.691 45.5878 0
      vertex -16.5 45 0
    endloop
  endfacet
  facet normal 0 0 -1
    outer loop
      vertex 16.691 45.5878 0
      vertex -17.191 45.9511 0
      vertex 21.75 50 0
    endloop
  endfacet
  facet normal 0 0 -1
    outer loop
      vertex -17.191 45.9511 0
      vertex -21.75 50 0
      vertex 21.75 50 0
    endloop
  endfacet
  facet normal 0 0 -1
    outer loop
      vertex -18.309 45.5878 0
      vertex -21.75 50 0
      vertex -17.191 45.9511 0
    endloop
  endfacet
  facet normal 0 0 -1
    outer loop
      vertex -18.309 44.4122 0
      vertex -21.75 50 0
      vertex -18.309 45.5878 0
    endloop
  endfacet
  facet normal -1 0 0
    outer loop
      vertex -21.75 -6.76389 0
      vertex -21.75 50 1
      vertex -21.75 50 0
    endloop
  endfacet
  facet normal -1 -0 0
    outer loop
      vertex -21.75 50 1
      vertex -21.75 -6.76389 0
      vertex -21.75 -6.76389 1
    endloop
  endfacet
  facet normal 0 1 -0
    outer loop
      vertex 21.75 50 0
      vertex -21.75 50 1
      vertex 21.75 50 1
    endloop
  endfacet
  facet normal 0 1 0
    outer loop
      vertex -21.75 50 1
      vertex 21.75 50 0
      vertex -21.75 50 0
    endloop
  endfacet
  facet normal 0 0 -1
    outer loop
      vertex -40.0056 -19.9702 6.17905
      vertex -38.0056 -16.8702 6.17905
      vertex -38.0056 -19.9702 6.17905
    endloop
  endfacet
  facet normal -0 0 -1
    outer loop
      vertex -38.0056 -16.8702 6.17905
      vertex -40.0056 -19.9702 6.17905
      vertex -40.0056 -16.8702 6.17905
    endloop
  endfacet
  facet normal 0 0 -1
    outer loop
      vertex 37.7 -19.9702 6.17905
      vertex 39.7 -16.8702 6.17905
      vertex 39.7 -19.9702 6.17905
    endloop
  endfacet
  facet normal -0 0 -1
    outer loop
      vertex 39.7 -16.8702 6.17905
      vertex 37.7 -19.9702 6.17905
      vertex 37.7 -16.8702 6.17905
    endloop
  endfacet
  facet normal 0 1 -0
    outer loop
      vertex -38.0056 -19.9702 4.87905
      vertex -40.0056 -19.9702 6.17905
      vertex -38.0056 -19.9702 6.17905
    endloop
  endfacet
  facet normal 0 1 0
    outer loop
      vertex -40.0056 -19.9702 6.17905
      vertex -38.0056 -19.9702 4.87905
      vertex -40.0056 -19.9702 4.87905
    endloop
  endfacet
  facet normal 0 1 -0
    outer loop
      vertex 39.7 -19.9702 4.87905
      vertex 37.7 -19.9702 6.17905
      vertex 39.7 -19.9702 6.17905
    endloop
  endfacet
  facet normal 0 1 0
    outer loop
      vertex 37.7 -19.9702 6.17905
      vertex 39.7 -19.9702 4.87905
      vertex 37.7 -19.9702 4.87905
    endloop
  endfacet
  facet normal 0 -1 0
    outer loop
      vertex -40.0056 -16.8702 4.87905
      vertex -38.0056 -16.8702 6.17905
      vertex -40.0056 -16.8702 6.17905
    endloop
  endfacet
  facet normal 0 -1 -0
    outer loop
      vertex -38.0056 -16.8702 6.17905
      vertex -40.0056 -16.8702 4.87905
      vertex -38.0056 -16.8702 4.87905
    endloop
  endfacet
  facet normal -0 0 1
    outer loop
      vertex -40.0056 -16.8702 4.87905
      vertex -38.0056 -19.9702 4.87905
      vertex -38.0056 -16.8702 4.87905
    endloop
  endfacet
  facet normal 0 0 1
    outer loop
      vertex -38.0056 -19.9702 4.87905
      vertex -40.0056 -16.8702 4.87905
      vertex -40.0056 -19.9702 4.87905
    endloop
  endfacet
  facet normal -0 0 1
    outer loop
      vertex 37.7 -16.8702 4.87905
      vertex 39.7 -19.9702 4.87905
      vertex 39.7 -16.8702 4.87905
    endloop
  endfacet
  facet normal 0 0 1
    outer loop
      vertex 39.7 -19.9702 4.87905
      vertex 37.7 -16.8702 4.87905
      vertex 37.7 -19.9702 4.87905
    endloop
  endfacet
  facet normal 0 -1 0
    outer loop
      vertex 37.7 -16.8702 4.87905
      vertex 39.7 -16.8702 6.17905
      vertex 37.7 -16.8702 6.17905
    endloop
  endfacet
  facet normal 0 -1 -0
    outer loop
      vertex 39.7 -16.8702 6.17905
      vertex 37.7 -16.8702 4.87905
      vertex 39.7 -16.8702 4.87905
    endloop
  endfacet
  facet normal 0 -1 0
    outer loop
      vertex -39.0056 -13.5639 6.2
      vertex -38.0056 -13.5639 17
      vertex -39.0056 -13.5639 17
    endloop
  endfacet
  facet normal 0 -1 -0
    outer loop
      vertex -38.0056 -13.5639 17
      vertex -39.0056 -13.5639 6.2
      vertex -38.0056 -13.5639 6.2
    endloop
  endfacet
  facet normal 0 -1 0
    outer loop
      vertex -38.0056 -8.51389 1
      vertex 37.7 -8.51389 17
      vertex -38.0056 -8.51389 17
    endloop
  endfacet
  facet normal 0 -1 -0
    outer loop
      vertex 37.7 -8.51389 17
      vertex -38.0056 -8.51389 1
      vertex 37.7 -8.51389 1
    endloop
  endfacet
  facet normal 0 -1 0
    outer loop
      vertex 37.7 -13.5639 6.2
      vertex 38.7 -13.5639 17
      vertex 37.7 -13.5639 17
    endloop
  endfacet
  facet normal 0 -1 -0
    outer loop
      vertex 38.7 -13.5639 17
      vertex 37.7 -13.5639 6.2
      vertex 38.7 -13.5639 6.2
    endloop
  endfacet
  facet normal -1 0 0
    outer loop
      vertex 38.7 -23.2639 6.2
      vertex 38.7 -13.5639 17
      vertex 38.7 -13.5639 6.2
    endloop
  endfacet
  facet normal -1 -0 0
    outer loop
      vertex 38.7 -13.5639 17
      vertex 38.7 -23.2639 6.2
      vertex 38.7 -23.2639 17
    endloop
  endfacet
  facet normal 0 1 -0
    outer loop
      vertex 37.7 -28.3139 1
      vertex -38.0056 -28.3139 17
      vertex 37.7 -28.3139 17
    endloop
  endfacet
  facet normal 0 1 0
    outer loop
      vertex -38.0056 -28.3139 17
      vertex 37.7 -28.3139 1
      vertex -38.0056 -28.3139 1
    endloop
  endfacet
  facet normal 1 0 0
    outer loop
      vertex -38.0056 -23.2641 17
      vertex -38.0056 -28.3139 17
      vertex -38.0056 -23.2641 6.2
    endloop
  endfacet
  facet normal 1 0 0
    outer loop
      vertex -38.0056 -13.5639 6.2
      vertex -38.0056 -19.9702 6.17905
      vertex -38.0056 -16.8702 6.17905
    endloop
  endfacet
  facet normal 1 0 0
    outer loop
      vertex -38.0056 -19.9702 6.17905
      vertex -38.0056 -23.2641 6.2
      vertex -38.0056 -19.9702 4.87905
    endloop
  endfacet
  facet normal 1 -0 0
    outer loop
      vertex -38.0056 -23.2641 6.2
      vertex -38.0056 -19.9702 6.17905
      vertex -38.0056 -13.5639 6.2
    endloop
  endfacet
  facet normal 1 0 0
    outer loop
      vertex -38.0056 -13.5639 6.2
      vertex -38.0056 -8.51389 17
      vertex -38.0056 -13.5639 17
    endloop
  endfacet
  facet normal 1 0 0
    outer loop
      vertex -38.0056 -8.51389 17
      vertex -38.0056 -13.5639 6.2
      vertex -38.0056 -8.51389 1
    endloop
  endfacet
  facet normal 1 0 0
    outer loop
      vertex -38.0056 -16.8702 4.87905
      vertex -38.0056 -13.5639 6.2
      vertex -38.0056 -16.8702 6.17905
    endloop
  endfacet
  facet normal 1 0 0
    outer loop
      vertex -38.0056 -13.5639 6.2
      vertex -38.0056 -16.8702 4.87905
      vertex -38.0056 -8.51389 1
    endloop
  endfacet
  facet normal 1 -0 0
    outer loop
      vertex -38.0056 -19.9702 4.87905
      vertex -38.0056 -8.51389 1
      vertex -38.0056 -16.8702 4.87905
    endloop
  endfacet
  facet normal 1 0 0
    outer loop
      vertex -38.0056 -19.9702 4.87905
      vertex -38.0056 -28.3139 1
      vertex -38.0056 -8.51389 1
    endloop
  endfacet
  facet normal 1 0 0
    outer loop
      vertex -38.0056 -23.2641 6.2
      vertex -38.0056 -28.3139 1
      vertex -38.0056 -19.9702 4.87905
    endloop
  endfacet
  facet normal 1 0 0
    outer loop
      vertex -38.0056 -28.3139 1
      vertex -38.0056 -23.2641 6.2
      vertex -38.0056 -28.3139 17
    endloop
  endfacet
  facet normal 0.0002 1 -0
    outer loop
      vertex -38.0056 -23.2641 6.2
      vertex -39.0056 -23.2639 17
      vertex -38.0056 -23.2641 17
    endloop
  endfacet
  facet normal 0.0002 1 0
    outer loop
      vertex -39.0056 -23.2639 17
      vertex -38.0056 -23.2641 6.2
      vertex -39.0056 -23.2639 6.2
    endloop
  endfacet
  facet normal 0 1 -0
    outer loop
      vertex 38.7 -23.2639 6.2
      vertex 37.7 -23.2639 17
      vertex 38.7 -23.2639 17
    endloop
  endfacet
  facet normal 0 1 0
    outer loop
      vertex 37.7 -23.2639 17
      vertex 38.7 -23.2639 6.2
      vertex 37.7 -23.2639 6.2
    endloop
  endfacet
  facet normal -1 0 0
    outer loop
      vertex 37.7 -8.51389 1
      vertex 37.7 -13.5639 6.2
      vertex 37.7 -8.51389 17
    endloop
  endfacet
  facet normal -1 0 0
    outer loop
      vertex 37.7 -8.51389 1
      vertex 37.7 -16.8702 4.87905
      vertex 37.7 -13.5639 6.2
    endloop
  endfacet
  facet normal -1 0 0
    outer loop
      vertex 37.7 -8.51389 1
      vertex 37.7 -19.9702 4.87905
      vertex 37.7 -16.8702 4.87905
    endloop
  endfacet
  facet normal -1 0 0
    outer loop
      vertex 37.7 -19.9702 4.87905
      vertex 37.7 -23.2639 6.2
      vertex 37.7 -19.9702 6.17905
    endloop
  endfacet
  facet normal -1 0 0
    outer loop
      vertex 37.7 -28.3139 1
      vertex 37.7 -19.9702 4.87905
      vertex 37.7 -8.51389 1
    endloop
  endfacet
  facet normal -1 0 0
    outer loop
      vertex 37.7 -28.3139 1
      vertex 37.7 -23.2639 6.2
      vertex 37.7 -19.9702 4.87905
    endloop
  endfacet
  facet normal -1 0 0
    outer loop
      vertex 37.7 -28.3139 17
      vertex 37.7 -23.2639 6.2
      vertex 37.7 -28.3139 1
    endloop
  endfacet
  facet normal -1 0 0
    outer loop
      vertex 37.7 -23.2639 6.2
      vertex 37.7 -28.3139 17
      vertex 37.7 -23.2639 17
    endloop
  endfacet
  facet normal -1 -0 0
    outer loop
      vertex 37.7 -8.51389 17
      vertex 37.7 -13.5639 6.2
      vertex 37.7 -13.5639 17
    endloop
  endfacet
  facet normal -1 0 0
    outer loop
      vertex 37.7 -16.8702 6.17905
      vertex 37.7 -13.5639 6.2
      vertex 37.7 -16.8702 4.87905
    endloop
  endfacet
  facet normal -1 0 0
    outer loop
      vertex 37.7 -19.9702 6.17905
      vertex 37.7 -13.5639 6.2
      vertex 37.7 -16.8702 6.17905
    endloop
  endfacet
  facet normal -1 -0 0
    outer loop
      vertex 37.7 -13.5639 6.2
      vertex 37.7 -19.9702 6.17905
      vertex 37.7 -23.2639 6.2
    endloop
  endfacet
  facet normal 1 0 0
    outer loop
      vertex 39.7 -6.76389 17
      vertex 39.7 -16.8702 6.17905
      vertex 39.7 -6.76389 0
    endloop
  endfacet
  facet normal 1 0 0
    outer loop
      vertex 39.7 -6.76389 17
      vertex 39.7 -19.9702 6.17905
      vertex 39.7 -16.8702 6.17905
    endloop
  endfacet
  facet normal 1 0 0
    outer loop
      vertex 39.7 -30.0639 0
      vertex 39.7 -19.9702 6.17905
      vertex 39.7 -30.0639 17
    endloop
  endfacet
  facet normal 1 -0 0
    outer loop
      vertex 39.7 -30.0639 17
      vertex 39.7 -19.9702 6.17905
      vertex 39.7 -6.76389 17
    endloop
  endfacet
  facet normal 1 -0 0
    outer loop
      vertex 39.7 -16.8702 4.87905
      vertex 39.7 -6.76389 0
      vertex 39.7 -16.8702 6.17905
    endloop
  endfacet
  facet normal 1 -0 0
    outer loop
      vertex 39.7 -19.9702 4.87905
      vertex 39.7 -6.76389 0
      vertex 39.7 -16.8702 4.87905
    endloop
  endfacet
  facet normal 1 0 0
    outer loop
      vertex 39.7 -19.9702 4.87905
      vertex 39.7 -30.0639 0
      vertex 39.7 -6.76389 0
    endloop
  endfacet
  facet normal 1 0 0
    outer loop
      vertex 39.7 -19.9702 6.17905
      vertex 39.7 -30.0639 0
      vertex 39.7 -19.9702 4.87905
    endloop
  endfacet
  facet normal 0 -1 0
    outer loop
      vertex -40.0056 -30.0639 0
      vertex 39.7 -30.0639 17
      vertex -40.0056 -30.0639 17
    endloop
  endfacet
  facet normal 0 -1 -0
    outer loop
      vertex 39.7 -30.0639 17
      vertex -40.0056 -30.0639 0
      vertex 39.7 -30.0639 0
    endloop
  endfacet
  facet normal 0 0 1
    outer loop
      vertex -38.0056 -23.2641 17
      vertex -39.0056 -23.2639 17
      vertex -38.0056 -28.3139 17
    endloop
  endfacet
  facet normal 0 0 1
    outer loop
      vertex 39.7 -6.76389 17
      vertex 38.7 -13.5639 17
      vertex 39.7 -30.0639 17
    endloop
  endfacet
  facet normal 0 0 1
    outer loop
      vertex 39.7 -6.76389 17
      vertex 37.7 -8.51389 17
      vertex 38.7 -13.5639 17
    endloop
  endfacet
  facet normal 0 0 1
    outer loop
      vertex 39.7 -6.76389 17
      vertex -38.0056 -8.51389 17
      vertex 37.7 -8.51389 17
    endloop
  endfacet
  facet normal 0 0 1
    outer loop
      vertex -38.0056 -8.51389 17
      vertex -39.0056 -13.5639 17
      vertex -38.0056 -13.5639 17
    endloop
  endfacet
  facet normal 0 0 1
    outer loop
      vertex -39.0056 -13.5639 17
      vertex -40.0056 -6.76389 17
      vertex -39.0056 -23.2639 17
    endloop
  endfacet
  facet normal 0 0 1
    outer loop
      vertex -38.0056 -8.51389 17
      vertex -40.0056 -6.76389 17
      vertex -39.0056 -13.5639 17
    endloop
  endfacet
  facet normal -0 0 1
    outer loop
      vertex -40.0056 -6.76389 17
      vertex -38.0056 -8.51389 17
      vertex 39.7 -6.76389 17
    endloop
  endfacet
  facet normal -0 0 1
    outer loop
      vertex 38.7 -23.2639 17
      vertex 39.7 -30.0639 17
      vertex 38.7 -13.5639 17
    endloop
  endfacet
  facet normal 0 0 1
    outer loop
      vertex 37.7 -28.3139 17
      vertex 38.7 -23.2639 17
      vertex 37.7 -23.2639 17
    endloop
  endfacet
  facet normal 0 0 1
    outer loop
      vertex 38.7 -23.2639 17
      vertex 37.7 -28.3139 17
      vertex 39.7 -30.0639 17
    endloop
  endfacet
  facet normal -0 0 1
    outer loop
      vertex -38.0056 -28.3139 17
      vertex 39.7 -30.0639 17
      vertex 37.7 -28.3139 17
    endloop
  endfacet
  facet normal 0 0 1
    outer loop
      vertex -38.0056 -28.3139 17
      vertex -40.0056 -30.0639 17
      vertex 39.7 -30.0639 17
    endloop
  endfacet
  facet normal 0 0 1
    outer loop
      vertex -39.0056 -23.2639 17
      vertex -40.0056 -30.0639 17
      vertex -38.0056 -28.3139 17
    endloop
  endfacet
  facet normal 0 0 1
    outer loop
      vertex -40.0056 -30.0639 17
      vertex -39.0056 -23.2639 17
      vertex -40.0056 -6.76389 17
    endloop
  endfacet
  facet normal 0 0 1
    outer loop
      vertex 38.7 -13.5639 17
      vertex 37.7 -8.51389 17
      vertex 37.7 -13.5639 17
    endloop
  endfacet
  facet normal -0 0 1
    outer loop
      vertex 37.7 -13.5639 6.2
      vertex 38.7 -23.2639 6.2
      vertex 38.7 -13.5639 6.2
    endloop
  endfacet
  facet normal 0 0 1
    outer loop
      vertex 38.7 -23.2639 6.2
      vertex 37.7 -13.5639 6.2
      vertex 37.7 -23.2639 6.2
    endloop
  endfacet
  facet normal 1 -0 0
    outer loop
      vertex -39.0056 -23.2639 17
      vertex -39.0056 -13.5639 6.2
      vertex -39.0056 -13.5639 17
    endloop
  endfacet
  facet normal 1 0 0
    outer loop
      vertex -39.0056 -13.5639 6.2
      vertex -39.0056 -23.2639 17
      vertex -39.0056 -23.2639 6.2
    endloop
  endfacet
  facet normal -1 0 0
    outer loop
      vertex -40.0056 -16.8702 6.17905
      vertex -40.0056 -6.76389 0
      vertex -40.0056 -16.8702 4.87905
    endloop
  endfacet
  facet normal -1 0 0
    outer loop
      vertex -40.0056 -6.76389 0
      vertex -40.0056 -19.9702 4.87905
      vertex -40.0056 -16.8702 4.87905
    endloop
  endfacet
  facet normal -1 -0 0
    outer loop
      vertex -40.0056 -19.9702 4.87905
      vertex -40.0056 -30.0639 0
      vertex -40.0056 -19.9702 6.17905
    endloop
  endfacet
  facet normal -1 0 0
    outer loop
      vertex -40.0056 -30.0639 0
      vertex -40.0056 -19.9702 4.87905
      vertex -40.0056 -6.76389 0
    endloop
  endfacet
  facet normal -1 0 0
    outer loop
      vertex -40.0056 -6.76389 0
      vertex -40.0056 -16.8702 6.17905
      vertex -40.0056 -6.76389 17
    endloop
  endfacet
  facet normal -1 0 0
    outer loop
      vertex -40.0056 -19.9702 6.17905
      vertex -40.0056 -6.76389 17
      vertex -40.0056 -16.8702 6.17905
    endloop
  endfacet
  facet normal -1 0 0
    outer loop
      vertex -40.0056 -30.0639 17
      vertex -40.0056 -19.9702 6.17905
      vertex -40.0056 -30.0639 0
    endloop
  endfacet
  facet normal -1 0 0
    outer loop
      vertex -40.0056 -19.9702 6.17905
      vertex -40.0056 -30.0639 17
      vertex -40.0056 -6.76389 17
    endloop
  endfacet
  facet normal 0 1 0
    outer loop
      vertex 39.7 -6.76389 17
      vertex 21.75 -6.76389 1
      vertex -40.0056 -6.76389 17
    endloop
  endfacet
  facet normal 0 1 -0
    outer loop
      vertex 39.7 -6.76389 0
      vertex 21.75 -6.76389 1
      vertex 39.7 -6.76389 17
    endloop
  endfacet
  facet normal 0 1 0
    outer loop
      vertex 21.75 -6.76389 1
      vertex 39.7 -6.76389 0
      vertex 21.75 -6.76389 0
    endloop
  endfacet
  facet normal 0 1 -0
    outer loop
      vertex -21.75 -6.76389 1
      vertex -40.0056 -6.76389 17
      vertex 21.75 -6.76389 1
    endloop
  endfacet
  facet normal 0 1 0
    outer loop
      vertex -40.0056 -6.76389 0
      vertex -21.75 -6.76389 1
      vertex -21.75 -6.76389 0
    endloop
  endfacet
  facet normal 0 1 0
    outer loop
      vertex -21.75 -6.76389 1
      vertex -40.0056 -6.76389 0
      vertex -40.0056 -6.76389 17
    endloop
  endfacet
  facet normal -0 0 1
    outer loop
      vertex -39.0056 -13.5639 6.2
      vertex -38.0056 -23.2641 6.2
      vertex -38.0056 -13.5639 6.2
    endloop
  endfacet
  facet normal 0 0 1
    outer loop
      vertex -38.0056 -23.2641 6.2
      vertex -39.0056 -13.5639 6.2
      vertex -39.0056 -23.2639 6.2
    endloop
  endfacet
  facet normal 0.309032 0.951052 -0
    outer loop
      vertex -17.191 -1.95106 0
      vertex -18.309 -1.58778 1
      vertex -17.191 -1.95106 1
    endloop
  endfacet
  facet normal 0.309032 0.951052 0
    outer loop
      vertex -18.309 -1.58778 1
      vertex -17.191 -1.95106 0
      vertex -18.309 -1.58778 0
    endloop
  endfacet
  facet normal 0.309026 -0.951054 0
    outer loop
      vertex -18.309 -0.412214 0
      vertex -17.191 -0.0489426 1
      vertex -18.309 -0.412214 1
    endloop
  endfacet
  facet normal 0.309026 -0.951054 0
    outer loop
      vertex -17.191 -0.0489426 1
      vertex -18.309 -0.412214 0
      vertex -17.191 -0.0489426 0
    endloop
  endfacet
  facet normal -0.80901 -0.587794 0
    outer loop
      vertex -16.5 -1 0
      vertex -17.191 -0.0489426 1
      vertex -17.191 -0.0489426 0
    endloop
  endfacet
  facet normal -0.80901 -0.587794 0
    outer loop
      vertex -17.191 -0.0489426 1
      vertex -16.5 -1 0
      vertex -16.5 -1 1
    endloop
  endfacet
  facet normal 1 -0 0
    outer loop
      vertex -18.309 -1.58778 1
      vertex -18.309 -0.412214 0
      vertex -18.309 -0.412214 1
    endloop
  endfacet
  facet normal 1 0 0
    outer loop
      vertex -18.309 -0.412214 0
      vertex -18.309 -1.58778 1
      vertex -18.309 -1.58778 0
    endloop
  endfacet
  facet normal -0.809011 0.587793 0
    outer loop
      vertex -17.191 -1.95106 0
      vertex -16.5 -1 1
      vertex -16.5 -1 0
    endloop
  endfacet
  facet normal -0.809011 0.587793 0
    outer loop
      vertex -16.5 -1 1
      vertex -17.191 -1.95106 0
      vertex -17.191 -1.95106 1
    endloop
  endfacet
  facet normal 0.309048 0.951047 -0
    outer loop
      vertex -17.191 44.0489 0
      vertex -18.309 44.4122 1
      vertex -17.191 44.0489 1
    endloop
  endfacet
  facet normal 0.309048 0.951047 0
    outer loop
      vertex -18.309 44.4122 1
      vertex -17.191 44.0489 0
      vertex -18.309 44.4122 0
    endloop
  endfacet
  facet normal 0.309048 -0.951047 0
    outer loop
      vertex -18.309 45.5878 0
      vertex -17.191 45.9511 1
      vertex -18.309 45.5878 1
    endloop
  endfacet
  facet normal 0.309048 -0.951047 0
    outer loop
      vertex -17.191 45.9511 1
      vertex -18.309 45.5878 0
      vertex -17.191 45.9511 0
    endloop
  endfacet
  facet normal -0.809023 -0.587777 0
    outer loop
      vertex -16.5 45 0
      vertex -17.191 45.9511 1
      vertex -17.191 45.9511 0
    endloop
  endfacet
  facet normal -0.809023 -0.587777 0
    outer loop
      vertex -17.191 45.9511 1
      vertex -16.5 45 0
      vertex -16.5 45 1
    endloop
  endfacet
  facet normal 1 -0 0
    outer loop
      vertex -18.309 44.4122 1
      vertex -18.309 45.5878 0
      vertex -18.309 45.5878 1
    endloop
  endfacet
  facet normal 1 0 0
    outer loop
      vertex -18.309 45.5878 0
      vertex -18.309 44.4122 1
      vertex -18.309 44.4122 0
    endloop
  endfacet
  facet normal -0.809023 0.587777 0
    outer loop
      vertex -17.191 44.0489 0
      vertex -16.5 45 1
      vertex -16.5 45 0
    endloop
  endfacet
  facet normal -0.809023 0.587777 0
    outer loop
      vertex -16.5 45 1
      vertex -17.191 44.0489 0
      vertex -17.191 44.0489 1
    endloop
  endfacet
  facet normal 0.309032 0.951052 -0
    outer loop
      vertex 17.809 -1.95106 0
      vertex 16.691 -1.58778 1
      vertex 17.809 -1.95106 1
    endloop
  endfacet
  facet normal 0.309032 0.951052 0
    outer loop
      vertex 16.691 -1.58778 1
      vertex 17.809 -1.95106 0
      vertex 16.691 -1.58778 0
    endloop
  endfacet
  facet normal 0.309026 -0.951054 0
    outer loop
      vertex 16.691 -0.412214 0
      vertex 17.809 -0.0489426 1
      vertex 16.691 -0.412214 1
    endloop
  endfacet
  facet normal 0.309026 -0.951054 0
    outer loop
      vertex 17.809 -0.0489426 1
      vertex 16.691 -0.412214 0
      vertex 17.809 -0.0489426 0
    endloop
  endfacet
  facet normal -0.80901 -0.587794 0
    outer loop
      vertex 18.5 -1 0
      vertex 17.809 -0.0489426 1
      vertex 17.809 -0.0489426 0
    endloop
  endfacet
  facet normal -0.80901 -0.587794 0
    outer loop
      vertex 17.809 -0.0489426 1
      vertex 18.5 -1 0
      vertex 18.5 -1 1
    endloop
  endfacet
  facet normal 1 -0 0
    outer loop
      vertex 16.691 -1.58778 1
      vertex 16.691 -0.412214 0
      vertex 16.691 -0.412214 1
    endloop
  endfacet
  facet normal 1 0 0
    outer loop
      vertex 16.691 -0.412214 0
      vertex 16.691 -1.58778 1
      vertex 16.691 -1.58778 0
    endloop
  endfacet
  facet normal -0.809011 0.587793 0
    outer loop
      vertex 17.809 -1.95106 0
      vertex 18.5 -1 1
      vertex 18.5 -1 0
    endloop
  endfacet
  facet normal -0.809011 0.587793 0
    outer loop
      vertex 18.5 -1 1
      vertex 17.809 -1.95106 0
      vertex 17.809 -1.95106 1
    endloop
  endfacet
  facet normal 0.309048 0.951047 -0
    outer loop
      vertex 17.809 44.0489 0
      vertex 16.691 44.4122 1
      vertex 17.809 44.0489 1
    endloop
  endfacet
  facet normal 0.309048 0.951047 0
    outer loop
      vertex 16.691 44.4122 1
      vertex 17.809 44.0489 0
      vertex 16.691 44.4122 0
    endloop
  endfacet
  facet normal 0.309048 -0.951047 0
    outer loop
      vertex 16.691 45.5878 0
      vertex 17.809 45.9511 1
      vertex 16.691 45.5878 1
    endloop
  endfacet
  facet normal 0.309048 -0.951047 0
    outer loop
      vertex 17.809 45.9511 1
      vertex 16.691 45.5878 0
      vertex 17.809 45.9511 0
    endloop
  endfacet
  facet normal -0.809023 -0.587777 0
    outer loop
      vertex 18.5 45 0
      vertex 17.809 45.9511 1
      vertex 17.809 45.9511 0
    endloop
  endfacet
  facet normal -0.809023 -0.587777 0
    outer loop
      vertex 17.809 45.9511 1
      vertex 18.5 45 0
      vertex 18.5 45 1
    endloop
  endfacet
  facet normal 1 -0 0
    outer loop
      vertex 16.691 44.4122 1
      vertex 16.691 45.5878 0
      vertex 16.691 45.5878 1
    endloop
  endfacet
  facet normal 1 0 0
    outer loop
      vertex 16.691 45.5878 0
      vertex 16.691 44.4122 1
      vertex 16.691 44.4122 0
    endloop
  endfacet
  facet normal -0.809023 0.587777 0
    outer loop
      vertex 17.809 44.0489 0
      vertex 18.5 45 1
      vertex 18.5 45 0
    endloop
  endfacet
  facet normal -0.809023 0.587777 0
    outer loop
      vertex 18.5 45 1
      vertex 17.809 44.0489 0
      vertex 17.809 44.0489 1
    endloop
  endfacet
endsolid OpenSCAD_Model
